# xmcd
#
# Track frame offsets: 
#        150
#        10760
#        21095
#        31304
#        41334
#        50867
#        63128
#        74121
#        85315
#        97417
#        107733
#        118326
#        129993
#        142825
#        154511
#        164560
#        177597
#        186788
#        196060
#        207333
#        216353
#        227385
#        238975
#        252424
#
# Disc length: 3477 seconds
#
# Revision: 0
# Processed by: cddbd v1.5.2PL0 Copyright (c) Steve Scherf et al.
# Submitted via: ExactAudioCopy v1.0b3
#
DISCID=5f0d9318
DTITLE=Buck Owens - Buck 'Em!: The Music of Buck Owens (1955-1967) (Di
DTITLE=sc 1)
DYEAR=2013
DGENRE=Country
TTITLE0=Down on the Corner of Love
TTITLE1=Hot Dog
TTITLE2=There Goes My Love
TTITLE3=Sweet Thing
TTITLE4=Second Fiddle
TTITLE5=Under Your Spell Again
TTITLE6=Above and Beyond [Alternate Version]
TTITLE7='Til These Dreams Come True
TTITLE8=Foolin' Around
TTITLE9=Nobody's Fool But Yours [Early Version]
TTITLE10=Under the Influence of Love [Early Version]
TTITLE11=Keeper of the Key
TTITLE12=Down to the River
TTITLE13=Fool Me Again
TTITLE14=My Heart Skips a Beat [Early Version]
TTITLE15=Sweethearts in Heaven
TTITLE16=Love's Gonna Live Here
TTITLE17=Down, Down, Down
TTITLE18=Act Naturally [Live in Bakersfield]
TTITLE19=Ain't It Amazin' Gracie
TTITLE20=Close Up the Honky Tonks [Early Version]
TTITLE21=Truck Drivin' Man
TTITLE22=I Don't Hear You
TTITLE23=Hello Trouble
EXTD=
EXTT0=
EXTT1=
EXTT2=
EXTT3=
EXTT4=
EXTT5=
EXTT6=
EXTT7=
EXTT8=
EXTT9=
EXTT10=
EXTT11=
EXTT12=
EXTT13=
EXTT14=
EXTT15=
EXTT16=
EXTT17=
EXTT18=
EXTT19=
EXTT20=
EXTT21=
EXTT22=
EXTT23=
PLAYORDER=
